<?xml version="1.0" encoding="UTF-8" standalone="no"?>
<svg
   width="194.45915"
   zoomAndPan="magnify"
   viewBox="0 0 145.84436 149.53912"
   height="199.3855"
   preserveAspectRatio="xMidYMid"
   version="1.0"
   id="svg276"
   xmlns="http://www.w3.org/2000/svg"
   xmlns:svg="http://www.w3.org/2000/svg">
  <defs
     id="defs262">
    <clipPath
       id="9c60987430">
      <path
         d="m 114.54688,112.5 h 146.24999 v 150 H 114.54688 Z m 0,0"
         clip-rule="nonzero"
         id="path259" />
    </clipPath>
  </defs>
  <g
     clip-path="url(#9c60987430)"
     id="g272"
     style="fill:#ffffff"
     transform="translate(-114.95034,-112.73047)">
    <path
       fill="#000000"
       d="m 187.87109,262.26953 c -0.875,0.004 -1.72656,-0.13281 -2.55859,-0.40625 l -48.61328,-16.16406 c -0.71875,-0.23828 -1.39063,-0.57031 -2.01172,-0.9961 -0.625,-0.42578 -1.17969,-0.92968 -1.66016,-1.50781 -0.48437,-0.58203 -0.8789,-1.21484 -1.18359,-1.90625 -0.30469,-0.6914 -0.50781,-1.40625 -0.60938,-2.15625 L 115.02734,121.92969 c -0.0781,-0.57031 -0.0977,-1.14453 -0.0547,-1.72266 0.043,-0.57422 0.14843,-1.14062 0.3125,-1.69531 0.16406,-0.55469 0.38672,-1.08203 0.66797,-1.58984 0.27734,-0.50782 0.60546,-0.97657 0.98828,-1.41407 0.3789,-0.43359 0.80078,-0.82422 1.26562,-1.17187 0.46485,-0.34375 0.96094,-0.63672 1.48828,-0.87891 0.52735,-0.23828 1.07422,-0.41797 1.64063,-0.54297 0.5664,-0.12109 1.13672,-0.18359 1.71875,-0.18359 h 129.63672 c 0.58203,0 1.15234,0.0625 1.71875,0.18359 0.5664,0.125 1.10937,0.30469 1.63671,0.54297 0.52735,0.23828 1.02344,0.53125 1.48829,0.87891 0.46093,0.34375 0.88281,0.73437 1.26562,1.16797 0.37891,0.4375 0.71094,0.90625 0.98828,1.41015 0.27735,0.50782 0.5,1.03516 0.66797,1.58985 0.16406,0.55468 0.26953,1.11718 0.3125,1.6914 0.0469,0.57813 0.0273,1.15235 -0.0508,1.72266 l -16.20703,117.20312 c -0.10156,0.75 -0.30469,1.46875 -0.60938,2.16016 -0.30468,0.69141 -0.69531,1.32812 -1.17968,1.90625 -0.48438,0.58203 -1.03516,1.08594 -1.66016,1.51172 -0.625,0.42578 -1.29688,0.75781 -2.01563,1 l -48.61328,16.16406 c -0.83203,0.27344 -1.68359,0.41016 -2.5625,0.40625 z m -41.27343,-30.3125 41.27343,13.70703 41.27735,-13.73828 14.24609,-103.02734 H 132.37109 Z m 0,0"
       fill-opacity="1"
       fill-rule="nonzero"
       id="path270"
       style="fill:#ffffff" />
  </g>
  <path
     fill="#000000"
     d="m 72.920751,115.18359 c -0.79297,0 -1.5664,-0.11328 -2.32812,-0.33984 l -20.25391,-6.0625 c -0.70703,-0.21094 -1.36719,-0.51172 -1.98828,-0.90235 -0.625,-0.39062 -1.17969,-0.85546 -1.67578,-1.39843 -0.49609,-0.54297 -0.90625,-1.14063 -1.23828,-1.79297 -0.33203,-0.65625 -0.57031,-1.33985 -0.71485,-2.0586 l -0.80859,-4.04296 c -0.10156,-0.50391 -0.15625,-1.01563 -0.15625,-1.52735 -0.004,-0.51562 0.0391,-1.02734 0.13672,-1.53125 0.0937,-0.50781 0.23437,-1 0.42187,-1.48047 0.19141,-0.47656 0.42188,-0.93359 0.69922,-1.36718 0.27344,-0.4375 0.58985,-0.83985 0.94532,-1.21485 0.35156,-0.375 0.73828,-0.71484 1.15625,-1.01562 0.41796,-0.30078 0.86328,-0.5586 1.32812,-0.77735 0.46875,-0.21484 0.95313,-0.38672 1.45313,-0.51172 0.5,-0.125 1.01171,-0.19921 1.52343,-0.22656 0.51563,-0.0273 1.03125,-0.008 1.53907,0.0625 0.51171,0.0703 1.01171,0.1875 1.5,0.35547 0.48828,0.16406 0.95703,0.375 1.40625,0.62891 0.44921,0.2539 0.86718,0.55078 1.26171,0.88281 0.39063,0.33594 0.7461,0.70312 1.07032,1.10547 0.32031,0.40625 0.60156,0.83203 0.83984,1.28906 0.23828,0.45703 0.43359,0.92969 0.58203,1.42578 l 13.30078,3.98047 12.96485,-3.88281 2.0039,-13.94922 h -39.27343 c -0.49219,0 -0.97657,-0.043 -1.45704,-0.13281 -0.48046,-0.0859 -0.95312,-0.21875 -1.41015,-0.39063 -0.45703,-0.17187 -0.89453,-0.38672 -1.31641,-0.63672 -0.41797,-0.2539 -0.8125,-0.54297 -1.17969,-0.86328 -0.36718,-0.32422 -0.69921,-0.67969 -1.0039,-1.0625 -0.30078,-0.38281 -0.56641,-0.78906 -0.79688,-1.22265 -0.22656,-0.4336 -0.41406,-0.87891 -0.5625,-1.34766 -0.14843,-0.46484 -0.25,-0.94141 -0.3125,-1.42578 l -4.05078,-32.33203 c -0.0703,-0.56641 -0.082,-1.13672 -0.0312,-1.70703 0.0508,-0.57032 0.16016,-1.12891 0.32813,-1.67969 0.17187,-0.54688 0.39453,-1.07031 0.67578,-1.57031 0.28125,-0.5 0.61328,-0.96485 0.99219,-1.39454 0.3789,-0.42968 0.80078,-0.8125 1.26171,-1.15234 0.46485,-0.33984 0.95704,-0.62891 1.48047,-0.86328 0.52344,-0.23828 1.06641,-0.41406 1.62891,-0.53516 0.55859,-0.12109 1.12891,-0.18359 1.70312,-0.18359 h 56.714849 c 0.53515,0 1.05859,0.0547 1.58203,0.15625 0.52344,0.10547 1.02734,0.25781 1.51953,0.46094 0.49219,0.20312 0.95703,0.45312 1.40234,0.74609 0.44141,0.29688 0.85157,0.62891 1.22657,1.00391 0.375,0.3789 0.71093,0.78515 1.00781,1.22656 0.29687,0.44141 0.54687,0.90625 0.75,1.39844 0.20312,0.48828 0.35547,0.99609 0.46094,1.51562 0.10156,0.51953 0.15625,1.04688 0.15625,1.57813 0,0.53125 -0.0547,1.05468 -0.15625,1.57422 -0.10547,0.52343 -0.25782,1.02734 -0.46094,1.51953 -0.20313,0.48828 -0.45313,0.95312 -0.75,1.39453 -0.29688,0.4414 -0.63281,0.85156 -1.00781,1.22656 -0.375,0.375 -0.78516,0.71094 -1.22657,1.00391 -0.44531,0.29687 -0.91015,0.54297 -1.40234,0.74609 -0.49219,0.20313 -0.99609,0.35938 -1.51953,0.46094 C 102.33877,48.44922 101.81533,48.5 101.28018,48.5 H 53.745021 l 2.02344,16.16406 h 41.46094 c 0.58203,0 1.15625,0.0625 1.72265,0.1875 0.56641,0.12109 1.113279,0.30469 1.644529,0.54297 0.52735,0.24219 1.02344,0.53516 1.48829,0.88281 0.46484,0.34766 0.88671,0.73828 1.26562,1.17578 0.38281,0.4375 0.71094,0.91016 0.98828,1.41797 0.28125,0.50781 0.5,1.03906 0.66406,1.59375 0.16407,0.5586 0.26563,1.125 0.3086,1.70313 0.043,0.57422 0.0234,1.15234 -0.0586,1.72265 l -4.05078,28.29297 c -0.10937,0.76172 -0.32422,1.4961 -0.64453,2.19922 -0.32031,0.70313 -0.730469,1.34375 -1.234369,1.92969 -0.50782,0.58594 -1.08203,1.08594 -1.73047,1.50781 -0.64844,0.41797 -1.34375,0.74219 -2.08594,0.96094 l -20.25391,6.0625 c -0.76171,0.22656 -1.53906,0.33984 -2.33203,0.33984 z m 0,0"
     fill-opacity="1"
     fill-rule="nonzero"
     id="path274"
     style="fill:#ffffff" />
</svg>
